# xmcd
#
# Track frame offsets: 
#        150
#        12376
#        35907
#        49859
#        70411
#        94600
#        112313
#        142539
#        158167
#        180051
#
# Disc length: 2538 seconds
#
# Revision: 0
# Processed by: cddbd v1.5.2PL0 Copyright (c) Steve Scherf et al.
# Submitted via: ExactAudioCopyFreeDBPlugin 1.0
#
DISCID=7f09e80a
DTITLE=Munta Blues Band - Rattle Snake
DYEAR=1900
DGENRE=Blues
TTITLE0=Blues Magic
TTITLE1=All along the Watchtower
TTITLE2=Black Magic woman
TTITLE3=Homeless Man
TTITLE4=Proud Mary
TTITLE5=Brand new Car
TTITLE6=Simple Man
TTITLE7=All that Lovin
TTITLE8=House of the rining Sun
TTITLE9=Muntablues
EXTD=
EXTT0=
EXTT1=
EXTT2=
EXTT3=
EXTT4=
EXTT5=
EXTT6=
EXTT7=
EXTT8=
EXTT9=
PLAYORDER=
